%TF.GenerationSoftware,KiCad,Pcbnew,7.0.7-7.0.7~ubuntu22.04.1*%
%TF.CreationDate,2024-11-14T09:30:22+02:00*%
%TF.ProjectId,EncoderInterface,456e636f-6465-4724-996e-746572666163,rev?*%
%TF.SameCoordinates,PX7e46bbcPY55e586c*%
%TF.FileFunction,Copper,L2,Bot*%
%TF.FilePolarity,Positive*%
%FSLAX46Y46*%
G04 Gerber Fmt 4.6, Leading zero omitted, Abs format (unit mm)*
G04 Created by KiCad (PCBNEW 7.0.7-7.0.7~ubuntu22.04.1) date 2024-11-14 09:30:22*
%MOMM*%
%LPD*%
G01*
G04 APERTURE LIST*
G04 Aperture macros list*
%AMRoundRect*
0 Rectangle with rounded corners*
0 $1 Rounding radius*
0 $2 $3 $4 $5 $6 $7 $8 $9 X,Y pos of 4 corners*
0 Add a 4 corners polygon primitive as box body*
4,1,4,$2,$3,$4,$5,$6,$7,$8,$9,$2,$3,0*
0 Add four circle primitives for the rounded corners*
1,1,$1+$1,$2,$3*
1,1,$1+$1,$4,$5*
1,1,$1+$1,$6,$7*
1,1,$1+$1,$8,$9*
0 Add four rect primitives between the rounded corners*
20,1,$1+$1,$2,$3,$4,$5,0*
20,1,$1+$1,$4,$5,$6,$7,0*
20,1,$1+$1,$6,$7,$8,$9,0*
20,1,$1+$1,$8,$9,$2,$3,0*%
G04 Aperture macros list end*
%TA.AperFunction,SMDPad,CuDef*%
%ADD10R,2.219198X1.500000*%
%TD*%
%TA.AperFunction,ComponentPad*%
%ADD11RoundRect,0.250000X0.600000X0.725000X-0.600000X0.725000X-0.600000X-0.725000X0.600000X-0.725000X0*%
%TD*%
%TA.AperFunction,ComponentPad*%
%ADD12O,1.700000X1.950000*%
%TD*%
%TA.AperFunction,ComponentPad*%
%ADD13RoundRect,0.250000X0.600000X0.750000X-0.600000X0.750000X-0.600000X-0.750000X0.600000X-0.750000X0*%
%TD*%
%TA.AperFunction,ComponentPad*%
%ADD14O,1.700000X2.000000*%
%TD*%
%TA.AperFunction,ComponentPad*%
%ADD15C,5.600000*%
%TD*%
%TA.AperFunction,SMDPad,CuDef*%
%ADD16RoundRect,0.250000X0.600000X-1.400000X0.600000X1.400000X-0.600000X1.400000X-0.600000X-1.400000X0*%
%TD*%
%TA.AperFunction,SMDPad,CuDef*%
%ADD17RoundRect,0.250000X-0.625000X0.400000X-0.625000X-0.400000X0.625000X-0.400000X0.625000X0.400000X0*%
%TD*%
%TA.AperFunction,SMDPad,CuDef*%
%ADD18RoundRect,0.250000X-1.400000X-0.600000X1.400000X-0.600000X1.400000X0.600000X-1.400000X0.600000X0*%
%TD*%
%TA.AperFunction,SMDPad,CuDef*%
%ADD19RoundRect,0.250000X0.412500X0.650000X-0.412500X0.650000X-0.412500X-0.650000X0.412500X-0.650000X0*%
%TD*%
%TA.AperFunction,SMDPad,CuDef*%
%ADD20RoundRect,0.250000X-0.400000X-0.625000X0.400000X-0.625000X0.400000X0.625000X-0.400000X0.625000X0*%
%TD*%
%TA.AperFunction,Conductor*%
%ADD21C,0.500000*%
%TD*%
%TA.AperFunction,Conductor*%
%ADD22C,0.250000*%
%TD*%
G04 APERTURE END LIST*
D10*
%TO.P,U1,1,NC*%
%TO.N,unconnected-(U1-NC-Pad1)*%
X21600000Y12980000D03*
%TO.P,U1,2,+VF*%
%TO.N,Net-(D3-K)*%
X21600000Y10440000D03*
%TO.P,U1,3,-VF*%
%TO.N,PULSE_GND*%
X21600000Y7900000D03*
%TO.P,U1,4,NC*%
%TO.N,unconnected-(U1-NC-Pad4)*%
X21600000Y5360000D03*
%TO.P,U1,5,GND*%
%TO.N,GND*%
X10120800Y5360000D03*
%TO.P,U1,6,VO*%
%TO.N,Net-(U1-VO)*%
X10120800Y7900000D03*
%TO.P,U1,7,VE*%
%TO.N,5V*%
X10120800Y10440000D03*
%TO.P,U1,8,VCC*%
X10120800Y12980000D03*
%TD*%
D11*
%TO.P,J2,1,Pin_1*%
%TO.N,5V*%
X8128000Y17526000D03*
D12*
%TO.P,J2,2,Pin_2*%
%TO.N,{slash}SIGNAL_OPENDRAIN*%
X5628000Y17526000D03*
%TO.P,J2,3,Pin_3*%
%TO.N,GND*%
X3128000Y17526000D03*
%TD*%
D13*
%TO.P,J1,1,Pin_1*%
%TO.N,PULSE_IN*%
X17780000Y17526000D03*
D14*
%TO.P,J1,2,Pin_2*%
%TO.N,PULSE_GND*%
X15280000Y17526000D03*
%TD*%
D15*
%TO.P,REF\u002A\u002A,1*%
%TO.N,N/C*%
X3810000Y3556000D03*
%TD*%
D16*
%TO.P,D2,1,K*%
%TO.N,Net-(D2-K)*%
X25654000Y2330000D03*
%TO.P,D2,2,A*%
%TO.N,Net-(D1-K)*%
X25654000Y7830000D03*
%TD*%
D17*
%TO.P,R3,1*%
%TO.N,PULSE_IN*%
X22606000Y18822000D03*
%TO.P,R3,2*%
%TO.N,Net-(D1-A)*%
X22606000Y15722000D03*
%TD*%
D16*
%TO.P,D1,1,K*%
%TO.N,Net-(D1-K)*%
X25654000Y12236000D03*
%TO.P,D1,2,A*%
%TO.N,Net-(D1-A)*%
X25654000Y17736000D03*
%TD*%
D18*
%TO.P,D3,1,K*%
%TO.N,Net-(D3-K)*%
X16046000Y1778000D03*
%TO.P,D3,2,A*%
%TO.N,Net-(D2-K)*%
X21546000Y1778000D03*
%TD*%
D19*
%TO.P,C1,1*%
%TO.N,5V*%
X5626500Y10668000D03*
%TO.P,C1,2*%
%TO.N,GND*%
X2501500Y10668000D03*
%TD*%
D20*
%TO.P,R6,1*%
%TO.N,Net-(U1-VO)*%
X2514000Y13843000D03*
%TO.P,R6,2*%
%TO.N,{slash}SIGNAL_OPENDRAIN*%
X5614000Y13843000D03*
%TD*%
D21*
%TO.N,5V*%
X9892800Y10668000D02*
X5626500Y10668000D01*
X8128000Y17018000D02*
X8128000Y14972800D01*
X8128000Y14972800D02*
X10120800Y12980000D01*
X10120800Y10440000D02*
X9892800Y10668000D01*
X10120800Y12980000D02*
X10120800Y10440000D01*
%TO.N,GND*%
X10094800Y5334000D02*
X10120800Y5360000D01*
D22*
%TO.N,Net-(D1-K)*%
X25934000Y13444000D02*
X25908000Y13418000D01*
D21*
X25654000Y7830000D02*
X25654000Y12236000D01*
%TO.N,Net-(D1-A)*%
X22606000Y15722000D02*
X23640000Y15722000D01*
X23640000Y15722000D02*
X25654000Y17736000D01*
%TO.N,Net-(D2-K)*%
X21546000Y1778000D02*
X25102000Y1778000D01*
X25102000Y1778000D02*
X25654000Y2330000D01*
%TO.N,Net-(D3-K)*%
X16046000Y1778000D02*
X16046000Y7156000D01*
X19330000Y10440000D02*
X21600000Y10440000D01*
X16046000Y7156000D02*
X19330000Y10440000D01*
%TO.N,PULSE_IN*%
X22606000Y18822000D02*
X21310000Y17526000D01*
X21310000Y17526000D02*
X17780000Y17526000D01*
%TO.N,{slash}SIGNAL_OPENDRAIN*%
X5614000Y17004000D02*
X5628000Y17018000D01*
X5628000Y13222000D02*
X5614000Y13236000D01*
X5614000Y13236000D02*
X5614000Y17004000D01*
%TO.N,Net-(U1-VO)*%
X4064000Y9144000D02*
X4064000Y12293000D01*
X10120800Y7900000D02*
X5308000Y7900000D01*
X4064000Y12293000D02*
X2514000Y13843000D01*
X5308000Y7900000D02*
X4064000Y9144000D01*
%TD*%
%TA.AperFunction,Conductor*%
%TO.N,PULSE_GND*%
G36*
X27880376Y20296466D02*
G01*
X27927209Y20244616D01*
X27939500Y20190791D01*
X27939500Y124500D01*
X27919815Y57461D01*
X27867011Y11706D01*
X27815500Y500D01*
X26603344Y500D01*
X26536305Y20185D01*
X26490550Y72989D01*
X26480606Y142147D01*
X26509631Y205703D01*
X26564337Y242205D01*
X26573334Y245186D01*
X26722656Y337288D01*
X26846712Y461344D01*
X26938814Y610666D01*
X26993999Y777203D01*
X27004500Y879991D01*
X27004499Y3780008D01*
X26993999Y3882797D01*
X26938814Y4049334D01*
X26846712Y4198656D01*
X26722656Y4322712D01*
X26573334Y4414814D01*
X26406797Y4469999D01*
X26406795Y4470000D01*
X26304010Y4480500D01*
X25003998Y4480500D01*
X25003981Y4480499D01*
X24901203Y4470000D01*
X24901200Y4469999D01*
X24734668Y4414815D01*
X24734663Y4414813D01*
X24585342Y4322711D01*
X24461289Y4198658D01*
X24369187Y4049337D01*
X24369185Y4049334D01*
X24369186Y4049334D01*
X24314001Y3882797D01*
X24314001Y3882796D01*
X24314000Y3882796D01*
X24303500Y3780017D01*
X24303500Y2652500D01*
X24283815Y2585461D01*
X24231011Y2539706D01*
X24179500Y2528500D01*
X23776301Y2528500D01*
X23709262Y2548185D01*
X23663507Y2600989D01*
X23658595Y2613496D01*
X23630814Y2697334D01*
X23538712Y2846656D01*
X23414656Y2970712D01*
X23265334Y3062814D01*
X23098797Y3117999D01*
X23098795Y3118000D01*
X22996010Y3128500D01*
X20095998Y3128500D01*
X20095981Y3128499D01*
X19993203Y3118000D01*
X19993200Y3117999D01*
X19826668Y3062815D01*
X19826663Y3062813D01*
X19677342Y2970711D01*
X19553289Y2846658D01*
X19461187Y2697337D01*
X19461185Y2697334D01*
X19461186Y2697334D01*
X19406001Y2530797D01*
X19406001Y2530796D01*
X19406000Y2530796D01*
X19395500Y2428017D01*
X19395500Y1127999D01*
X19395501Y1127982D01*
X19406000Y1025204D01*
X19406001Y1025201D01*
X19461185Y858669D01*
X19461186Y858666D01*
X19553288Y709344D01*
X19677344Y585288D01*
X19826666Y493186D01*
X19993203Y438001D01*
X20095991Y427500D01*
X22996008Y427501D01*
X23098797Y438001D01*
X23265334Y493186D01*
X23414656Y585288D01*
X23538712Y709344D01*
X23630814Y858666D01*
X23658595Y942505D01*
X23698368Y999949D01*
X23762884Y1026772D01*
X23776301Y1027500D01*
X24179501Y1027500D01*
X24246540Y1007815D01*
X24292295Y955011D01*
X24303501Y903500D01*
X24303501Y879982D01*
X24314000Y777204D01*
X24314001Y777201D01*
X24369185Y610669D01*
X24369186Y610666D01*
X24461288Y461344D01*
X24585344Y337288D01*
X24734666Y245186D01*
X24743662Y242205D01*
X24801106Y202433D01*
X24827928Y137917D01*
X24815613Y69141D01*
X24768069Y17941D01*
X24704656Y500D01*
X13332000Y500D01*
X13264961Y20185D01*
X13219206Y72989D01*
X13208000Y124500D01*
X13208000Y1127999D01*
X13895500Y1127999D01*
X13895501Y1127982D01*
X13906000Y1025204D01*
X13906001Y1025201D01*
X13961185Y858669D01*
X13961186Y858666D01*
X14053288Y709344D01*
X14177344Y585288D01*
X14326666Y493186D01*
X14493203Y438001D01*
X14595991Y427500D01*
X17496008Y427501D01*
X17598797Y438001D01*
X17765334Y493186D01*
X17914656Y585288D01*
X18038712Y709344D01*
X18130814Y858666D01*
X18185999Y1025203D01*
X18196500Y1127991D01*
X18196499Y2428008D01*
X18185999Y2530797D01*
X18130814Y2697334D01*
X18038712Y2846656D01*
X17914656Y2970712D01*
X17765334Y3062814D01*
X17598797Y3117999D01*
X17598795Y3118000D01*
X17496016Y3128500D01*
X17496009Y3128500D01*
X16920500Y3128500D01*
X16853461Y3148185D01*
X16807706Y3200989D01*
X16796500Y3252500D01*
X16796500Y4562130D01*
X19989901Y4562130D01*
X19989902Y4562124D01*
X19996309Y4502517D01*
X20046603Y4367672D01*
X20046607Y4367665D01*
X20132853Y4252456D01*
X20132856Y4252453D01*
X20248065Y4166207D01*
X20248072Y4166203D01*
X20382918Y4115909D01*
X20382917Y4115909D01*
X20389845Y4115165D01*
X20442528Y4109500D01*
X22757471Y4109501D01*
X22817082Y4115909D01*
X22951930Y4166204D01*
X23067145Y4252454D01*
X23153395Y4367669D01*
X23203690Y4502517D01*
X23210099Y4562127D01*
X23210098Y6157872D01*
X23203690Y6217483D01*
X23153395Y6352331D01*
X23153394Y6352332D01*
X23153392Y6352336D01*
X23132683Y6379999D01*
X24303500Y6379999D01*
X24303501Y6379982D01*
X24314000Y6277204D01*
X24314001Y6277201D01*
X24333790Y6217484D01*
X24369186Y6110666D01*
X24461288Y5961344D01*
X24585344Y5837288D01*
X24734666Y5745186D01*
X24901203Y5690001D01*
X25003991Y5679500D01*
X26304008Y5679501D01*
X26406797Y5690001D01*
X26573334Y5745186D01*
X26722656Y5837288D01*
X26846712Y5961344D01*
X26938814Y6110666D01*
X26993999Y6277203D01*
X27004500Y6379991D01*
X27004499Y9280008D01*
X26993999Y9382797D01*
X26938814Y9549334D01*
X26846712Y9698656D01*
X26722656Y9822712D01*
X26573334Y9914814D01*
X26573333Y9914815D01*
X26573327Y9914817D01*
X26571871Y9915299D01*
X26571003Y9915900D01*
X26566791Y9917864D01*
X26567126Y9918585D01*
X26514431Y9955078D01*
X26487615Y10019597D01*
X26499937Y10088371D01*
X26547485Y10139566D01*
X26571887Y10150707D01*
X26573334Y10151186D01*
X26722656Y10243288D01*
X26846712Y10367344D01*
X26938814Y10516666D01*
X26993999Y10683203D01*
X27004500Y10785991D01*
X27004499Y13686008D01*
X26995114Y13777877D01*
X26993999Y13788797D01*
X26993998Y13788800D01*
X26977866Y13837483D01*
X26938814Y13955334D01*
X26846712Y14104656D01*
X26722656Y14228712D01*
X26573334Y14320814D01*
X26406797Y14375999D01*
X26406795Y14376000D01*
X26304010Y14386500D01*
X25003998Y14386500D01*
X25003981Y14386499D01*
X24901203Y14376000D01*
X24901200Y14375999D01*
X24734668Y14320815D01*
X24734663Y14320813D01*
X24585342Y14228711D01*
X24461289Y14104658D01*
X24369187Y13955337D01*
X24369185Y13955334D01*
X24369186Y13955334D01*
X24314001Y13788797D01*
X24314001Y13788796D01*
X24314000Y13788796D01*
X24303500Y13686017D01*
X24303500Y10785999D01*
X24303501Y10785982D01*
X24314000Y10683204D01*
X24314001Y10683201D01*
X24369185Y10516669D01*
X24369186Y10516666D01*
X24461288Y10367344D01*
X24585344Y10243288D01*
X24734666Y10151186D01*
X24736109Y10150708D01*
X24736967Y10150114D01*
X24741209Y10148136D01*
X24740871Y10147412D01*
X24793554Y10110942D01*
X24820382Y10046428D01*
X24808072Y9977651D01*
X24760533Y9926447D01*
X24736132Y9915301D01*
X24734679Y9914820D01*
X24734663Y9914813D01*
X24585342Y9822711D01*
X24461289Y9698658D01*
X24369187Y9549337D01*
X24369185Y9549334D01*
X24369186Y9549334D01*
X24314001Y9382797D01*
X24314001Y9382796D01*
X24314000Y9382796D01*
X24303500Y9280017D01*
X24303500Y6379999D01*
X23132683Y6379999D01*
X23067146Y6467545D01*
X22982319Y6531047D01*
X22940449Y6586981D01*
X22935465Y6656672D01*
X22968951Y6717995D01*
X22982321Y6729580D01*
X23066788Y6792812D01*
X23066789Y6792813D01*
X23152949Y6907907D01*
X23152953Y6907914D01*
X23203195Y7042621D01*
X23203197Y7042628D01*
X23209598Y7102156D01*
X23209599Y7102173D01*
X23209599Y7650000D01*
X19990401Y7650000D01*
X19990401Y7102156D01*
X19996802Y7042628D01*
X19996804Y7042621D01*
X20047046Y6907914D01*
X20047050Y6907907D01*
X20133209Y6792814D01*
X20217679Y6729580D01*
X20259550Y6673646D01*
X20264534Y6603954D01*
X20231049Y6542631D01*
X20217680Y6531047D01*
X20132853Y6467545D01*
X20046607Y6352336D01*
X20046603Y6352329D01*
X19996309Y6217483D01*
X19989902Y6157884D01*
X19989902Y6157877D01*
X19989901Y6157865D01*
X19989901Y4562130D01*
X16796500Y4562130D01*
X16796500Y6793771D01*
X16816185Y6860810D01*
X16832819Y6881452D01*
X19604548Y9653181D01*
X19665871Y9686666D01*
X19692229Y9689500D01*
X19873424Y9689500D01*
X19940463Y9669815D01*
X19986218Y9617011D01*
X19993667Y9589866D01*
X19994525Y9590068D01*
X19996308Y9582521D01*
X20046603Y9447672D01*
X20046607Y9447665D01*
X20132853Y9332456D01*
X20132856Y9332453D01*
X20217679Y9268954D01*
X20259550Y9213021D01*
X20264534Y9143329D01*
X20231048Y9082006D01*
X20217680Y9070422D01*
X20133210Y9007188D01*
X20047050Y8892094D01*
X20047046Y8892087D01*
X19996804Y8757380D01*
X19996802Y8757373D01*
X19990401Y8697845D01*
X19990401Y8150000D01*
X23209599Y8150000D01*
X23209599Y8697828D01*
X23209598Y8697845D01*
X23203197Y8757373D01*
X23203195Y8757380D01*
X23152953Y8892087D01*
X23152949Y8892094D01*
X23066789Y9007187D01*
X22982320Y9070421D01*
X22940449Y9126355D01*
X22935465Y9196047D01*
X22968950Y9257370D01*
X22982311Y9268948D01*
X23067145Y9332454D01*
X23153395Y9447669D01*
X23203690Y9582517D01*
X23210099Y9642127D01*
X23210098Y11237872D01*
X23203690Y11297483D01*
X23153395Y11432331D01*
X23153394Y11432332D01*
X23153392Y11432336D01*
X23067146Y11547545D01*
X22982736Y11610735D01*
X22940866Y11666669D01*
X22935882Y11736361D01*
X22969368Y11797683D01*
X22982728Y11809260D01*
X23067145Y11872454D01*
X23153395Y11987669D01*
X23203690Y12122517D01*
X23210099Y12182127D01*
X23210098Y13777872D01*
X23203690Y13837483D01*
X23159734Y13955334D01*
X23153396Y13972329D01*
X23153392Y13972336D01*
X23067146Y14087545D01*
X23067143Y14087548D01*
X22951934Y14173794D01*
X22951927Y14173798D01*
X22817081Y14224092D01*
X22817082Y14224092D01*
X22757482Y14230499D01*
X22757480Y14230500D01*
X22757472Y14230500D01*
X22757463Y14230500D01*
X20442530Y14230500D01*
X20442524Y14230499D01*
X20382917Y14224092D01*
X20248072Y14173798D01*
X20248065Y14173794D01*
X20132856Y14087548D01*
X20132853Y14087545D01*
X20046607Y13972336D01*
X20046603Y13972329D01*
X19996309Y13837483D01*
X19991075Y13788797D01*
X19989902Y13777877D01*
X19989901Y13777865D01*
X19989901Y12182130D01*
X19989902Y12182124D01*
X19996309Y12122517D01*
X20046603Y11987672D01*
X20046607Y11987665D01*
X20132853Y11872456D01*
X20132856Y11872453D01*
X20217262Y11809266D01*
X20259133Y11753332D01*
X20264117Y11683641D01*
X20230631Y11622318D01*
X20217262Y11610734D01*
X20132856Y11547548D01*
X20132853Y11547545D01*
X20046607Y11432336D01*
X20046603Y11432329D01*
X19996309Y11297483D01*
X19994527Y11289938D01*
X19992254Y11290475D01*
X19969972Y11236688D01*
X19912578Y11196843D01*
X19873425Y11190500D01*
X19393705Y11190500D01*
X19375735Y11191809D01*
X19351972Y11195290D01*
X19306890Y11191345D01*
X19299933Y11190736D01*
X19294532Y11190500D01*
X19286288Y11190500D01*
X19253707Y11186692D01*
X19177199Y11179999D01*
X19170133Y11178539D01*
X19170121Y11178596D01*
X19162754Y11176962D01*
X19162768Y11176906D01*
X19155751Y11175244D01*
X19083573Y11148974D01*
X19010662Y11124813D01*
X19004119Y11121762D01*
X19004094Y11121814D01*
X18997310Y11118530D01*
X18997336Y11118479D01*
X18990885Y11115239D01*
X18926723Y11073039D01*
X18861346Y11032715D01*
X18855682Y11028235D01*
X18855646Y11028281D01*
X18849798Y11023516D01*
X18849835Y11023472D01*
X18844310Y11018836D01*
X18791614Y10962983D01*
X15560358Y7731728D01*
X15546729Y7719949D01*
X15527468Y7705610D01*
X15493898Y7665603D01*
X15490253Y7661624D01*
X15484409Y7655778D01*
X15464059Y7630041D01*
X15414695Y7571211D01*
X15410729Y7565181D01*
X15410682Y7565212D01*
X15406630Y7558853D01*
X15406679Y7558823D01*
X15402889Y7552679D01*
X15370424Y7483059D01*
X15335960Y7414434D01*
X15333488Y7407643D01*
X15333432Y7407664D01*
X15330960Y7400550D01*
X15331015Y7400531D01*
X15328742Y7393673D01*
X15320974Y7356055D01*
X15313207Y7318435D01*
X15300001Y7262716D01*
X15295498Y7243714D01*
X15294661Y7236546D01*
X15294601Y7236553D01*
X15293835Y7229055D01*
X15293895Y7229049D01*
X15293265Y7221860D01*
X15295500Y7145084D01*
X15295500Y3252500D01*
X15275815Y3185461D01*
X15223011Y3139706D01*
X15171500Y3128500D01*
X14595998Y3128500D01*
X14595980Y3128499D01*
X14493203Y3118000D01*
X14493200Y3117999D01*
X14326668Y3062815D01*
X14326663Y3062813D01*
X14177342Y2970711D01*
X14053289Y2846658D01*
X13961187Y2697337D01*
X13961185Y2697334D01*
X13961186Y2697334D01*
X13906001Y2530797D01*
X13906001Y2530796D01*
X13906000Y2530796D01*
X13895500Y2428017D01*
X13895500Y1127999D01*
X13208000Y1127999D01*
X13208000Y19892286D01*
X13227685Y19959325D01*
X13280489Y20005080D01*
X13329444Y20016260D01*
X21744437Y20189693D01*
X21811867Y20171394D01*
X21858700Y20119544D01*
X21870066Y20050605D01*
X21842357Y19986465D01*
X21785996Y19948013D01*
X21661666Y19906814D01*
X21661663Y19906813D01*
X21512342Y19814711D01*
X21388289Y19690658D01*
X21296187Y19541337D01*
X21296185Y19541334D01*
X21296186Y19541334D01*
X21241001Y19374797D01*
X21241001Y19374796D01*
X21241000Y19374796D01*
X21230500Y19272017D01*
X21230500Y18559231D01*
X21210815Y18492192D01*
X21194185Y18471555D01*
X21035449Y18312818D01*
X20974128Y18279334D01*
X20947770Y18276500D01*
X19247535Y18276500D01*
X19180496Y18296185D01*
X19134741Y18348989D01*
X19124177Y18387898D01*
X19123663Y18392929D01*
X19119999Y18428797D01*
X19064814Y18595334D01*
X18972712Y18744656D01*
X18848656Y18868712D01*
X18699334Y18960814D01*
X18532797Y19015999D01*
X18532795Y19016000D01*
X18430010Y19026500D01*
X17129998Y19026500D01*
X17129981Y19026499D01*
X17027203Y19016000D01*
X17027200Y19015999D01*
X16860668Y18960815D01*
X16860663Y18960813D01*
X16711342Y18868711D01*
X16587288Y18744657D01*
X16587285Y18744653D01*
X16491550Y18589442D01*
X16439602Y18542717D01*
X16370640Y18531496D01*
X16306558Y18559339D01*
X16298331Y18566857D01*
X16151078Y18714109D01*
X15957578Y18849601D01*
X15743492Y18949430D01*
X15743486Y18949433D01*
X15530000Y19006636D01*
X15530000Y18138302D01*
X15510315Y18071263D01*
X15457511Y18025508D01*
X15388355Y18015564D01*
X15315766Y18026000D01*
X15315763Y18026000D01*
X15244237Y18026000D01*
X15244233Y18026000D01*
X15171645Y18015564D01*
X15102487Y18025508D01*
X15049684Y18071264D01*
X15030000Y18138302D01*
X15030000Y19006636D01*
X15029999Y19006636D01*
X14816513Y18949433D01*
X14816507Y18949430D01*
X14602422Y18849601D01*
X14602420Y18849600D01*
X14408926Y18714114D01*
X14408920Y18714109D01*
X14241891Y18547080D01*
X14241886Y18547074D01*
X14106400Y18353580D01*
X14106399Y18353578D01*
X14006570Y18139493D01*
X14006566Y18139484D01*
X13945432Y17911327D01*
X13945430Y17911316D01*
X13933592Y17776001D01*
X13933593Y17776000D01*
X14666653Y17776000D01*
X14733692Y17756315D01*
X14779447Y17703511D01*
X14789391Y17634353D01*
X14785631Y17617067D01*
X14780000Y17597889D01*
X14780000Y17454111D01*
X14783856Y17440978D01*
X14785631Y17434933D01*
X14785630Y17365064D01*
X14747855Y17306286D01*
X14684299Y17277262D01*
X14666653Y17276000D01*
X13933592Y17276000D01*
X13945430Y17140685D01*
X13945432Y17140674D01*
X14006566Y16912517D01*
X14006570Y16912508D01*
X14106399Y16698423D01*
X14106400Y16698421D01*
X14241886Y16504927D01*
X14241891Y16504921D01*
X14408917Y16337895D01*
X14602421Y16202400D01*
X14816507Y16102571D01*
X14816516Y16102567D01*
X15030000Y16045366D01*
X15030000Y16913699D01*
X15049685Y16980738D01*
X15102489Y17026493D01*
X15171647Y17036437D01*
X15244237Y17026000D01*
X15244238Y17026000D01*
X15315762Y17026000D01*
X15315763Y17026000D01*
X15388353Y17036437D01*
X15457512Y17026493D01*
X15510315Y16980738D01*
X15530000Y16913699D01*
X15530000Y16045367D01*
X15743483Y16102567D01*
X15743492Y16102571D01*
X15957577Y16202400D01*
X15957579Y16202401D01*
X16151073Y16337887D01*
X16151079Y16337892D01*
X16298331Y16485143D01*
X16359654Y16518628D01*
X16429346Y16513644D01*
X16485279Y16471772D01*
X16491551Y16462559D01*
X16495186Y16456666D01*
X16587288Y16307344D01*
X16711344Y16183288D01*
X16860666Y16091186D01*
X17027203Y16036001D01*
X17129991Y16025500D01*
X18430008Y16025501D01*
X18532797Y16036001D01*
X18699334Y16091186D01*
X18848656Y16183288D01*
X18972712Y16307344D01*
X19064814Y16456666D01*
X19119999Y16623203D01*
X19124177Y16664104D01*
X19150573Y16728793D01*
X19207753Y16768945D01*
X19247535Y16775500D01*
X21246295Y16775500D01*
X21264265Y16774191D01*
X21288023Y16770711D01*
X21288024Y16770712D01*
X21295167Y16769665D01*
X21294674Y16766303D01*
X21346672Y16749771D01*
X21391243Y16695964D01*
X21399648Y16626601D01*
X21382871Y16581875D01*
X21296189Y16441341D01*
X21296185Y16441334D01*
X21296186Y16441334D01*
X21241001Y16274797D01*
X21241001Y16274796D01*
X21241000Y16274796D01*
X21230500Y16172017D01*
X21230500Y15271999D01*
X21230501Y15271981D01*
X21241000Y15169204D01*
X21241001Y15169201D01*
X21283753Y15040187D01*
X21296186Y15002666D01*
X21388288Y14853344D01*
X21512344Y14729288D01*
X21661666Y14637186D01*
X21828203Y14582001D01*
X21930991Y14571500D01*
X23281008Y14571501D01*
X23383797Y14582001D01*
X23550334Y14637186D01*
X23699656Y14729288D01*
X23823712Y14853344D01*
X23908643Y14991041D01*
X23954087Y15031916D01*
X23953178Y15033389D01*
X23957942Y15036328D01*
X23960218Y15037431D01*
X23960591Y15037765D01*
X23961785Y15038330D01*
X23965886Y15040242D01*
X23965911Y15040187D01*
X23972690Y15043469D01*
X23972663Y15043522D01*
X23979106Y15046760D01*
X23979117Y15046763D01*
X24043283Y15088966D01*
X24108656Y15129288D01*
X24108662Y15129295D01*
X24114325Y15133771D01*
X24114362Y15133723D01*
X24120204Y15138482D01*
X24120164Y15138529D01*
X24125686Y15143164D01*
X24125696Y15143170D01*
X24150255Y15169201D01*
X24178386Y15199018D01*
X24390384Y15411018D01*
X24602385Y15623019D01*
X24663706Y15656502D01*
X24729068Y15653042D01*
X24734662Y15651189D01*
X24734666Y15651186D01*
X24901203Y15596001D01*
X25003991Y15585500D01*
X26304008Y15585501D01*
X26406797Y15596001D01*
X26573334Y15651186D01*
X26722656Y15743288D01*
X26846712Y15867344D01*
X26938814Y16016666D01*
X26993999Y16183203D01*
X27004500Y16285991D01*
X27004499Y19186008D01*
X26993999Y19288797D01*
X26938814Y19455334D01*
X26846712Y19604656D01*
X26722656Y19728712D01*
X26573334Y19820814D01*
X26406797Y19875999D01*
X26406795Y19876000D01*
X26304010Y19886500D01*
X25003998Y19886500D01*
X25003981Y19886499D01*
X24901203Y19876000D01*
X24901200Y19875999D01*
X24734668Y19820815D01*
X24734663Y19820813D01*
X24585342Y19728711D01*
X24461289Y19604658D01*
X24369187Y19455337D01*
X24369185Y19455334D01*
X24369186Y19455334D01*
X24314001Y19288797D01*
X24314001Y19288796D01*
X24314000Y19288796D01*
X24303500Y19186017D01*
X24303500Y17498231D01*
X24283815Y17431192D01*
X24267181Y17410550D01*
X23688868Y16832238D01*
X23627545Y16798753D01*
X23557853Y16803737D01*
X23551174Y16806536D01*
X23493441Y16825667D01*
X23383797Y16861999D01*
X23383795Y16862000D01*
X23281016Y16872500D01*
X22017228Y16872500D01*
X21950189Y16892185D01*
X21904434Y16944989D01*
X21894490Y17014147D01*
X21923515Y17077703D01*
X21929533Y17084167D01*
X22480549Y17635182D01*
X22541872Y17668667D01*
X22568230Y17671501D01*
X23281002Y17671501D01*
X23281008Y17671501D01*
X23383797Y17682001D01*
X23550334Y17737186D01*
X23699656Y17829288D01*
X23823712Y17953344D01*
X23915814Y18102666D01*
X23970999Y18269203D01*
X23981500Y18371991D01*
X23981499Y19272008D01*
X23970999Y19374797D01*
X23915814Y19541334D01*
X23823712Y19690656D01*
X23699656Y19814712D01*
X23583270Y19886499D01*
X23550336Y19906813D01*
X23550331Y19906815D01*
X23548862Y19907302D01*
X23383797Y19961999D01*
X23383795Y19962000D01*
X23281016Y19972500D01*
X23240497Y19972500D01*
X23173458Y19992185D01*
X23127703Y20044989D01*
X23117759Y20114147D01*
X23146784Y20177703D01*
X23205562Y20215477D01*
X23237940Y20220474D01*
X27812947Y20314765D01*
X27880376Y20296466D01*
G37*
%TD.AperFunction*%
%TD*%
%TA.AperFunction,Conductor*%
%TO.N,GND*%
G36*
X11881039Y20299815D02*
G01*
X11926794Y20247011D01*
X11938000Y20195500D01*
X11938000Y13952329D01*
X11918315Y13885290D01*
X11865511Y13839535D01*
X11796353Y13829591D01*
X11732797Y13858616D01*
X11697818Y13908996D01*
X11674196Y13972329D01*
X11674192Y13972336D01*
X11587946Y14087545D01*
X11587943Y14087548D01*
X11472734Y14173794D01*
X11472727Y14173798D01*
X11337881Y14224092D01*
X11337882Y14224092D01*
X11278282Y14230499D01*
X11278280Y14230500D01*
X11278272Y14230500D01*
X11278264Y14230500D01*
X9983029Y14230500D01*
X9915990Y14250185D01*
X9895348Y14266819D01*
X8914819Y15247349D01*
X8881334Y15308672D01*
X8878500Y15335030D01*
X8878500Y15970700D01*
X8898185Y16037739D01*
X8950989Y16083494D01*
X8963482Y16088401D01*
X9047334Y16116186D01*
X9196656Y16208288D01*
X9320712Y16332344D01*
X9412814Y16481666D01*
X9467999Y16648203D01*
X9478500Y16750991D01*
X9478499Y18301008D01*
X9477156Y18314151D01*
X9467999Y18403797D01*
X9467998Y18403800D01*
X9430104Y18518155D01*
X9412814Y18570334D01*
X9320712Y18719656D01*
X9196656Y18843712D01*
X9065786Y18924433D01*
X9047336Y18935813D01*
X9047331Y18935815D01*
X9045862Y18936302D01*
X8880797Y18990999D01*
X8880795Y18991000D01*
X8778010Y19001500D01*
X7477998Y19001500D01*
X7477981Y19001499D01*
X7375203Y18991000D01*
X7375200Y18990999D01*
X7208668Y18935815D01*
X7208663Y18935813D01*
X7059342Y18843711D01*
X6935289Y18719658D01*
X6839821Y18564879D01*
X6787873Y18518155D01*
X6718910Y18506932D01*
X6654828Y18534776D01*
X6646601Y18542295D01*
X6499402Y18689494D01*
X6499395Y18689499D01*
X6305834Y18825033D01*
X6305830Y18825035D01*
X6265777Y18843712D01*
X6091663Y18924903D01*
X6091659Y18924904D01*
X6091655Y18924906D01*
X5863413Y18986062D01*
X5863403Y18986064D01*
X5628001Y19006659D01*
X5627999Y19006659D01*
X5392596Y18986064D01*
X5392586Y18986062D01*
X5164344Y18924906D01*
X5164335Y18924902D01*
X4950171Y18825036D01*
X4950169Y18825035D01*
X4756597Y18689495D01*
X4589508Y18522406D01*
X4479269Y18364968D01*
X4424692Y18321344D01*
X4355193Y18314151D01*
X4292839Y18345673D01*
X4276119Y18364969D01*
X4166113Y18522074D01*
X4166108Y18522080D01*
X3999082Y18689106D01*
X3805578Y18824601D01*
X3591492Y18924430D01*
X3591486Y18924433D01*
X3378000Y18981636D01*
X3378000Y18113044D01*
X3358315Y18046005D01*
X3305511Y18000250D01*
X3236353Y17990306D01*
X3210064Y17994086D01*
X3161975Y18001000D01*
X3094025Y18001000D01*
X3019647Y17990306D01*
X2950488Y18000250D01*
X2897684Y18046005D01*
X2878000Y18113044D01*
X2878000Y18981636D01*
X2877999Y18981636D01*
X2664513Y18924433D01*
X2664507Y18924430D01*
X2450422Y18824601D01*
X2450420Y18824600D01*
X2256926Y18689114D01*
X2256920Y18689109D01*
X2089891Y18522080D01*
X2089886Y18522074D01*
X1954400Y18328580D01*
X1954399Y18328578D01*
X1854570Y18114493D01*
X1854566Y18114484D01*
X1793432Y17886327D01*
X1793430Y17886317D01*
X1783779Y17776000D01*
X2540708Y17776000D01*
X2607747Y17756315D01*
X2653502Y17703511D01*
X2663446Y17634353D01*
X2659686Y17617067D01*
X2653000Y17594295D01*
X2653000Y17457706D01*
X2659686Y17434933D01*
X2659684Y17365063D01*
X2621909Y17306286D01*
X2558353Y17277262D01*
X2540708Y17276000D01*
X1783779Y17276000D01*
X1793430Y17165684D01*
X1793432Y17165674D01*
X1854566Y16937517D01*
X1854570Y16937508D01*
X1954399Y16723423D01*
X1954400Y16723421D01*
X2089886Y16529927D01*
X2089891Y16529921D01*
X2256917Y16362895D01*
X2450421Y16227400D01*
X2664507Y16127571D01*
X2664516Y16127567D01*
X2878000Y16070366D01*
X2878000Y16938956D01*
X2897685Y17005995D01*
X2950489Y17051750D01*
X3019647Y17061694D01*
X3025066Y17060915D01*
X3094025Y17051000D01*
X3094026Y17051000D01*
X3161974Y17051000D01*
X3161975Y17051000D01*
X3231570Y17061007D01*
X3236353Y17061694D01*
X3305512Y17051750D01*
X3358316Y17005995D01*
X3378000Y16938956D01*
X3378000Y16070367D01*
X3591483Y16127567D01*
X3591492Y16127571D01*
X3805577Y16227400D01*
X3805579Y16227401D01*
X3999073Y16362887D01*
X3999079Y16362892D01*
X4166108Y16529921D01*
X4166113Y16529927D01*
X4276119Y16687033D01*
X4330695Y16730658D01*
X4400194Y16737852D01*
X4462549Y16706330D01*
X4479269Y16687033D01*
X4589506Y16529597D01*
X4756595Y16362508D01*
X4756598Y16362506D01*
X4756599Y16362505D01*
X4810623Y16324678D01*
X4854248Y16270103D01*
X4863500Y16223103D01*
X4863500Y15202799D01*
X4843815Y15135760D01*
X4804598Y15097261D01*
X4745344Y15060713D01*
X4621289Y14936658D01*
X4529187Y14787337D01*
X4529185Y14787334D01*
X4529186Y14787334D01*
X4474001Y14620797D01*
X4474001Y14620796D01*
X4474000Y14620796D01*
X4463500Y14518017D01*
X4463500Y13254230D01*
X4443815Y13187191D01*
X4391011Y13141436D01*
X4321853Y13131492D01*
X4258297Y13160517D01*
X4251819Y13166549D01*
X3700818Y13717550D01*
X3667333Y13778873D01*
X3664499Y13805231D01*
X3664499Y14518002D01*
X3664498Y14518019D01*
X3653999Y14620797D01*
X3653998Y14620800D01*
X3645341Y14646926D01*
X3598814Y14787334D01*
X3506712Y14936656D01*
X3382656Y15060712D01*
X3233334Y15152814D01*
X3066797Y15207999D01*
X3066795Y15208000D01*
X2964010Y15218500D01*
X2063998Y15218500D01*
X2063980Y15218499D01*
X1961203Y15208000D01*
X1961200Y15207999D01*
X1794668Y15152815D01*
X1794663Y15152813D01*
X1645342Y15060711D01*
X1521289Y14936658D01*
X1429187Y14787337D01*
X1429185Y14787334D01*
X1429186Y14787334D01*
X1374001Y14620797D01*
X1374001Y14620796D01*
X1374000Y14620796D01*
X1363500Y14518017D01*
X1363500Y13167999D01*
X1363501Y13167982D01*
X1374000Y13065204D01*
X1374001Y13065201D01*
X1429185Y12898669D01*
X1429186Y12898666D01*
X1521288Y12749344D01*
X1645344Y12625288D01*
X1794666Y12533186D01*
X1961203Y12478001D01*
X2063991Y12467500D01*
X2776769Y12467501D01*
X2843808Y12447817D01*
X2864450Y12431182D01*
X3015951Y12279681D01*
X3049436Y12218358D01*
X3044452Y12148666D01*
X3002580Y12092733D01*
X2937116Y12068316D01*
X2928270Y12068000D01*
X2751500Y12068000D01*
X2751500Y9268001D01*
X2963972Y9268001D01*
X2963986Y9268002D01*
X3066695Y9278494D01*
X3147547Y9305286D01*
X3217376Y9307688D01*
X3277418Y9271957D01*
X3308611Y9209436D01*
X3309244Y9169617D01*
X3308710Y9165976D01*
X3313264Y9113936D01*
X3313500Y9108530D01*
X3313500Y9100291D01*
X3317306Y9067726D01*
X3324000Y8991209D01*
X3325461Y8984133D01*
X3325403Y8984122D01*
X3327034Y8976763D01*
X3327092Y8976776D01*
X3328757Y8969750D01*
X3355025Y8897576D01*
X3379185Y8824669D01*
X3382236Y8818126D01*
X3382182Y8818102D01*
X3385470Y8811312D01*
X3385521Y8811337D01*
X3388761Y8804887D01*
X3388762Y8804886D01*
X3388763Y8804883D01*
X3419938Y8757483D01*
X3430965Y8740717D01*
X3471287Y8675345D01*
X3475766Y8669681D01*
X3475719Y8669644D01*
X3480482Y8663798D01*
X3480528Y8663836D01*
X3485173Y8658300D01*
X3541018Y8605614D01*
X4732267Y7414366D01*
X4744048Y7400734D01*
X4758390Y7381470D01*
X4798420Y7347881D01*
X4802392Y7344241D01*
X4808224Y7338409D01*
X4808227Y7338406D01*
X4833947Y7318069D01*
X4892788Y7268696D01*
X4898818Y7264730D01*
X4898785Y7264681D01*
X4905143Y7260631D01*
X4905175Y7260681D01*
X4911320Y7256891D01*
X4911323Y7256889D01*
X4980936Y7224428D01*
X5049567Y7189960D01*
X5049572Y7189959D01*
X5056361Y7187487D01*
X5056340Y7187430D01*
X5063455Y7184957D01*
X5063475Y7185014D01*
X5070330Y7182742D01*
X5145557Y7167210D01*
X5145558Y7167210D01*
X5220279Y7149500D01*
X5220289Y7149500D01*
X5227452Y7148662D01*
X5227444Y7148603D01*
X5234945Y7147836D01*
X5234951Y7147895D01*
X5242140Y7147266D01*
X5242144Y7147267D01*
X5242145Y7147266D01*
X5318918Y7149500D01*
X8394224Y7149500D01*
X8461263Y7129815D01*
X8507018Y7077011D01*
X8514467Y7049866D01*
X8515325Y7050068D01*
X8517108Y7042521D01*
X8567403Y6907672D01*
X8567407Y6907665D01*
X8653653Y6792456D01*
X8653656Y6792453D01*
X8738479Y6728954D01*
X8780350Y6673021D01*
X8785334Y6603329D01*
X8751848Y6542006D01*
X8738480Y6530422D01*
X8654010Y6467188D01*
X8567850Y6352094D01*
X8567846Y6352087D01*
X8517604Y6217380D01*
X8517602Y6217373D01*
X8511201Y6157845D01*
X8511201Y5610000D01*
X10246800Y5610000D01*
X10313839Y5590315D01*
X10359594Y5537511D01*
X10370800Y5486000D01*
X10370800Y4110000D01*
X11278227Y4110000D01*
X11278243Y4110001D01*
X11337771Y4116402D01*
X11337778Y4116404D01*
X11472485Y4166646D01*
X11472492Y4166650D01*
X11587586Y4252810D01*
X11587589Y4252813D01*
X11673749Y4367907D01*
X11673753Y4367914D01*
X11697818Y4432435D01*
X11739689Y4488369D01*
X11805153Y4512786D01*
X11873426Y4497935D01*
X11922832Y4448530D01*
X11938000Y4389102D01*
X11938000Y124500D01*
X11918315Y57461D01*
X11865511Y11706D01*
X11814000Y500D01*
X124500Y500D01*
X57461Y20185D01*
X11706Y72989D01*
X500Y124500D01*
X500Y3555998D01*
X504652Y3555998D01*
X524028Y3198632D01*
X524029Y3198615D01*
X581926Y2845461D01*
X581932Y2845435D01*
X677672Y2500608D01*
X677674Y2500601D01*
X810142Y2168130D01*
X810151Y2168112D01*
X977784Y1851923D01*
X977790Y1851914D01*
X1178634Y1555691D01*
X1178641Y1555681D01*
X1410331Y1282915D01*
X1410332Y1282914D01*
X1670163Y1036789D01*
X1955081Y820200D01*
X2261747Y635685D01*
X2261749Y635684D01*
X2261751Y635683D01*
X2261755Y635681D01*
X2586552Y485415D01*
X2586565Y485409D01*
X2925726Y371132D01*
X3275254Y294195D01*
X3631052Y255500D01*
X3631058Y255500D01*
X3988942Y255500D01*
X3988948Y255500D01*
X4344746Y294195D01*
X4694274Y371132D01*
X5033435Y485409D01*
X5358253Y635685D01*
X5664919Y820200D01*
X5949837Y1036789D01*
X6209668Y1282914D01*
X6441365Y1555689D01*
X6642211Y1851915D01*
X6809853Y2168120D01*
X6942324Y2500597D01*
X7038071Y2845448D01*
X7095972Y3198629D01*
X7115348Y3556000D01*
X7095972Y3913371D01*
X7063736Y4110000D01*
X7038073Y4266540D01*
X7038072Y4266541D01*
X7038071Y4266552D01*
X6942324Y4611403D01*
X6809853Y4943880D01*
X6721781Y5110000D01*
X8511201Y5110000D01*
X8511201Y4562156D01*
X8517602Y4502628D01*
X8517604Y4502621D01*
X8567846Y4367914D01*
X8567850Y4367907D01*
X8654010Y4252813D01*
X8654013Y4252810D01*
X8769107Y4166650D01*
X8769114Y4166646D01*
X8903821Y4116404D01*
X8903828Y4116402D01*
X8963356Y4110001D01*
X8963373Y4110000D01*
X9870800Y4110000D01*
X9870800Y5110000D01*
X8511201Y5110000D01*
X6721781Y5110000D01*
X6642211Y5260085D01*
X6441365Y5556311D01*
X6441361Y5556316D01*
X6441358Y5556320D01*
X6209668Y5829086D01*
X6209668Y5829087D01*
X5949837Y6075211D01*
X5949830Y6075217D01*
X5949827Y6075219D01*
X5882245Y6126593D01*
X5664919Y6291800D01*
X5358253Y6476315D01*
X5358252Y6476316D01*
X5358248Y6476318D01*
X5358244Y6476320D01*
X5033447Y6626586D01*
X5033441Y6626589D01*
X5033435Y6626591D01*
X4863854Y6683730D01*
X4694273Y6740869D01*
X4344744Y6817806D01*
X3988949Y6856500D01*
X3988948Y6856500D01*
X3631052Y6856500D01*
X3631050Y6856500D01*
X3275255Y6817806D01*
X2925726Y6740869D01*
X2673987Y6656047D01*
X2586565Y6626591D01*
X2586562Y6626590D01*
X2586563Y6626590D01*
X2586552Y6626586D01*
X2261755Y6476320D01*
X2261751Y6476318D01*
X2055290Y6352094D01*
X1955081Y6291800D01*
X1918327Y6263860D01*
X1670172Y6075219D01*
X1670163Y6075211D01*
X1410331Y5829086D01*
X1178641Y5556320D01*
X1178634Y5556310D01*
X977790Y5260087D01*
X977784Y5260078D01*
X810151Y4943889D01*
X810142Y4943871D01*
X677674Y4611400D01*
X677672Y4611393D01*
X581932Y4266566D01*
X581926Y4266540D01*
X524029Y3913386D01*
X524028Y3913369D01*
X504652Y3556003D01*
X504652Y3555998D01*
X500Y3555998D01*
X500Y10418000D01*
X1339001Y10418000D01*
X1339001Y9968014D01*
X1349494Y9865303D01*
X1404641Y9698881D01*
X1404643Y9698876D01*
X1496684Y9549655D01*
X1620654Y9425685D01*
X1769875Y9333644D01*
X1769880Y9333642D01*
X1936302Y9278495D01*
X1936309Y9278494D01*
X2039019Y9268001D01*
X2251499Y9268001D01*
X2251500Y9268002D01*
X2251500Y10418000D01*
X1339001Y10418000D01*
X500Y10418000D01*
X500Y10918001D01*
X1338999Y10918001D01*
X1339000Y10918000D01*
X2251500Y10918000D01*
X2251500Y12068000D01*
X2039029Y12068000D01*
X2039012Y12067999D01*
X1936302Y12057506D01*
X1769880Y12002359D01*
X1769875Y12002357D01*
X1620654Y11910316D01*
X1496684Y11786346D01*
X1404643Y11637125D01*
X1404641Y11637120D01*
X1349494Y11470698D01*
X1349493Y11470691D01*
X1339000Y11367987D01*
X1339000Y11367974D01*
X1338999Y10918001D01*
X500Y10918001D01*
X500Y20195500D01*
X20185Y20262539D01*
X72989Y20308294D01*
X124500Y20319500D01*
X11814000Y20319500D01*
X11881039Y20299815D01*
G37*
%TD.AperFunction*%
%TD*%
M02*
